<svg width="33" height="33" viewBox="0 0 33 33" fill="none" xmlns="http://www.w3.org/2000/svg"><rect x="0.613281" y="0.186523" width="31.9979" height="31.9979" rx="14.8562" fill="#F36E8D" fill-opacity="0.2"></rect><path fill-rule="evenodd" clip-rule="evenodd" d="M12.8028 11.6147V10.8528C12.8028 10.0113 13.485 9.3291 14.3265 9.3291H18.8976C19.7391 9.3291 20.4213 10.0113 20.4213 10.8528V11.6147H22.7069C23.1277 11.6147 23.4688 11.9558 23.4688 12.3765C23.4688 12.7973 23.1277 13.1384 22.7069 13.1384H21.945V21.5188C21.945 22.7811 20.9218 23.8044 19.6595 23.8044H13.5646C12.3023 23.8044 11.2791 22.7811 11.2791 21.5188V13.1384H10.5172C10.0964 13.1384 9.75534 12.7973 9.75534 12.3765C9.75534 11.9558 10.0964 11.6147 10.5172 11.6147H12.8028ZM14.3265 10.8528H18.8976V11.6147H14.3265V10.8528ZM12.8028 13.1384H20.4213V21.5188C20.4213 21.9396 20.0802 22.2807 19.6595 22.2807H13.5646C13.1439 22.2807 12.8028 21.9396 12.8028 21.5188V13.1384Z" fill="url(#paint0_linear_1332_2705)"></path><defs><linearGradient id="paint0_linear_1332_2705" x1="23.4688" y1="13.3475" x2="6.31603" y2="13.8313" gradientUnits="userSpaceOnUse"><stop stop-color="#F2709C"></stop><stop offset="1" stop-color="#F96030"></stop></linearGradient></defs></svg>