<svg width="33" height="33" viewBox="0 0 33 33" fill="none" xmlns="http://www.w3.org/2000/svg"><rect x="0.550781" y="0.186523" width="31.9979" height="31.9979" rx="14.8562" fill="#E7E7E7" fill-opacity="0.5"></rect><path fill-rule="evenodd" clip-rule="evenodd" d="M22.9983 8.63667C22.7008 8.33915 22.2184 8.33915 21.9209 8.63667L21.9093 8.64827C21.8408 8.71675 21.737 8.73354 21.6468 8.69811C20.8262 8.37562 19.8567 8.54601 19.1934 9.20929L10.8552 17.5476C10.7659 17.6368 10.7659 17.7816 10.8552 17.8708L14.8417 21.8573C14.9309 21.9465 15.0756 21.9465 15.1649 21.8573L23.5031 13.519C24.1664 12.8557 24.3368 11.8862 24.0143 11.0656C23.9789 10.9755 23.9957 10.8716 24.0642 10.8031L24.0758 10.7915C24.3733 10.494 24.3733 10.0116 24.0758 9.7141L22.9983 8.63667ZM22.6631 11.881C22.7523 11.9702 22.7523 12.1149 22.6631 12.2042L15.1649 19.7024C15.0756 19.7917 14.9309 19.7917 14.8417 19.7024L13.01 17.8708C12.9208 17.7816 12.9208 17.6368 13.01 17.5476L20.5082 10.0493C20.5975 9.96009 20.7422 9.96009 20.8314 10.0493L22.6631 11.881Z" fill="#9FA1A1"></path><path d="M8.55484 24.4227C8.38422 24.4693 8.22766 24.3127 8.2742 24.1421L9.68174 18.9818C9.72792 18.8125 9.93978 18.7563 10.0639 18.8804L13.8163 22.6334C13.9404 22.7575 13.8842 22.9693 13.7149 23.0155L8.55484 24.4227Z" fill="#9FA1A1"></path></svg>