<svg width="180" height="34" viewBox="0 0 180 34" fill="none"
    xmlns="http://www.w3.org/2000/svg">
    <path d="M36.0669 16.7029C36.0669 15.2069 36.4116 13.8649 37.1009 12.6769C37.8049 11.4889 38.7509 10.5649 39.9389 9.90486C41.1416 9.23019 42.4543 8.89286 43.8769 8.89286C45.5049 8.89286 46.9496 9.29619 48.2109 10.1029C49.4869 10.8949 50.4109 12.0242 50.9829 13.4909H47.9689C47.5729 12.6842 47.0229 12.0829 46.3189 11.6869C45.6149 11.2909 44.8009 11.0929 43.8769 11.0929C42.8649 11.0929 41.9629 11.3202 41.1709 11.7749C40.3789 12.2295 39.7556 12.8822 39.3009 13.7329C38.8609 14.5835 38.6409 15.5735 38.6409 16.7029C38.6409 17.8322 38.8609 18.8222 39.3009 19.6729C39.7556 20.5235 40.3789 21.1835 41.1709 21.6529C41.9629 22.1075 42.8649 22.3349 43.8769 22.3349C44.8009 22.3349 45.6149 22.1369 46.3189 21.7409C47.0229 21.3449 47.5729 20.7435 47.9689 19.9369H50.9829C50.4109 21.4035 49.4869 22.5329 48.2109 23.3249C46.9496 24.1169 45.5049 24.5129 43.8769 24.5129C42.4396 24.5129 41.1269 24.1829 39.9389 23.5229C38.7509 22.8482 37.8049 21.9169 37.1009 20.7289C36.4116 19.5409 36.0669 18.1989 36.0669 16.7029ZM53.0826 18.2649C53.0826 17.0475 53.3319 15.9695 53.8306 15.0309C54.3439 14.0922 55.0332 13.3662 55.8986 12.8529C56.7786 12.3249 57.7466 12.0609 58.8026 12.0609C59.7559 12.0609 60.5846 12.2515 61.2886 12.6329C62.0072 12.9995 62.5792 13.4615 63.0046 14.0189V12.2589H65.5346V24.3809H63.0046V22.5769C62.5792 23.1489 61.9999 23.6255 61.2666 24.0069C60.5332 24.3882 59.6972 24.5789 58.7586 24.5789C57.7172 24.5789 56.7639 24.3149 55.8986 23.7869C55.0332 23.2442 54.3439 22.4962 53.8306 21.5429C53.3319 20.5749 53.0826 19.4822 53.0826 18.2649ZM63.0046 18.3089C63.0046 17.4729 62.8286 16.7469 62.4766 16.1309C62.1392 15.5149 61.6919 15.0455 61.1346 14.7229C60.5772 14.4002 59.9759 14.2389 59.3306 14.2389C58.6852 14.2389 58.0839 14.4002 57.5266 14.7229C56.9692 15.0309 56.5146 15.4929 56.1626 16.1089C55.8252 16.7102 55.6566 17.4289 55.6566 18.2649C55.6566 19.1009 55.8252 19.8342 56.1626 20.4649C56.5146 21.0955 56.9692 21.5795 57.5266 21.9169C58.0986 22.2395 58.6999 22.4009 59.3306 22.4009C59.9759 22.4009 60.5772 22.2395 61.1346 21.9169C61.6919 21.5942 62.1392 21.1249 62.4766 20.5089C62.8286 19.8782 63.0046 19.1449 63.0046 18.3089ZM71.3367 14.0409C71.762 13.4835 72.3414 13.0142 73.0747 12.6329C73.808 12.2515 74.6367 12.0609 75.5607 12.0609C76.6167 12.0609 77.5774 12.3249 78.4427 12.8529C79.3227 13.3662 80.012 14.0922 80.5107 15.0309C81.0094 15.9695 81.2587 17.0475 81.2587 18.2649C81.2587 19.4822 81.0094 20.5749 80.5107 21.5429C80.012 22.4962 79.3227 23.2442 78.4427 23.7869C77.5774 24.3149 76.6167 24.5789 75.5607 24.5789C74.6367 24.5789 73.8154 24.3955 73.0967 24.0289C72.378 23.6475 71.7914 23.1782 71.3367 22.6209V30.1449H68.8287V12.2589H71.3367V14.0409ZM78.7067 18.2649C78.7067 17.4289 78.5307 16.7102 78.1787 16.1089C77.8414 15.4929 77.3867 15.0309 76.8147 14.7229C76.2574 14.4002 75.656 14.2389 75.0107 14.2389C74.38 14.2389 73.7787 14.4002 73.2067 14.7229C72.6494 15.0455 72.1947 15.5149 71.8427 16.1309C71.5054 16.7469 71.3367 17.4729 71.3367 18.3089C71.3367 19.1449 71.5054 19.8782 71.8427 20.5089C72.1947 21.1249 72.6494 21.5942 73.2067 21.9169C73.7787 22.2395 74.38 22.4009 75.0107 22.4009C75.656 22.4009 76.2574 22.2395 76.8147 21.9169C77.3867 21.5795 77.8414 21.0955 78.1787 20.4649C78.5307 19.8342 78.7067 19.1009 78.7067 18.2649ZM99.3317 9.09086V11.1369H95.2617V24.3809H92.7537V11.1369H88.6617V9.09086H99.3317ZM101.036 18.2649C101.036 17.0475 101.285 15.9695 101.784 15.0309C102.297 14.0922 102.986 13.3662 103.852 12.8529C104.732 12.3249 105.7 12.0609 106.756 12.0609C107.709 12.0609 108.538 12.2515 109.242 12.6329C109.96 12.9995 110.532 13.4615 110.958 14.0189V12.2589H113.488V24.3809H110.958V22.5769C110.532 23.1489 109.953 23.6255 109.22 24.0069C108.486 24.3882 107.65 24.5789 106.712 24.5789C105.67 24.5789 104.717 24.3149 103.852 23.7869C102.986 23.2442 102.297 22.4962 101.784 21.5429C101.285 20.5749 101.036 19.4822 101.036 18.2649ZM110.958 18.3089C110.958 17.4729 110.782 16.7469 110.43 16.1309C110.092 15.5149 109.645 15.0455 109.088 14.7229C108.53 14.4002 107.929 14.2389 107.284 14.2389C106.638 14.2389 106.037 14.4002 105.48 14.7229C104.922 15.0309 104.468 15.4929 104.116 16.1089C103.778 16.7102 103.61 17.4289 103.61 18.2649C103.61 19.1009 103.778 19.8342 104.116 20.4649C104.468 21.0955 104.922 21.5795 105.48 21.9169C106.052 22.2395 106.653 22.4009 107.284 22.4009C107.929 22.4009 108.53 22.2395 109.088 21.9169C109.645 21.5942 110.092 21.1249 110.43 20.5089C110.782 19.8782 110.958 19.1449 110.958 18.3089ZM119.29 14.0629C119.715 13.4762 120.295 12.9995 121.028 12.6329C121.776 12.2515 122.605 12.0609 123.514 12.0609C124.585 12.0609 125.553 12.3175 126.418 12.8309C127.283 13.3442 127.965 14.0775 128.464 15.0309C128.963 15.9695 129.212 17.0475 129.212 18.2649C129.212 19.4822 128.963 20.5749 128.464 21.5429C127.965 22.4962 127.276 23.2442 126.396 23.7869C125.531 24.3149 124.57 24.5789 123.514 24.5789C122.575 24.5789 121.739 24.3955 121.006 24.0289C120.287 23.6622 119.715 23.1929 119.29 22.6209V24.3809H116.782V8.10086H119.29V14.0629ZM126.66 18.2649C126.66 17.4289 126.484 16.7102 126.132 16.1089C125.795 15.4929 125.34 15.0309 124.768 14.7229C124.211 14.4002 123.609 14.2389 122.964 14.2389C122.333 14.2389 121.732 14.4002 121.16 14.7229C120.603 15.0455 120.148 15.5149 119.796 16.1309C119.459 16.7469 119.29 17.4729 119.29 18.3089C119.29 19.1449 119.459 19.8782 119.796 20.5089C120.148 21.1249 120.603 21.5942 121.16 21.9169C121.732 22.2395 122.333 22.4009 122.964 22.4009C123.609 22.4009 124.211 22.2395 124.768 21.9169C125.34 21.5795 125.795 21.0955 126.132 20.4649C126.484 19.8342 126.66 19.1009 126.66 18.2649ZM134.2 8.10086V24.3809H131.692V8.10086H134.2ZM148.603 18.0229C148.603 18.4775 148.573 18.8882 148.515 19.2549H139.253C139.326 20.2229 139.685 21.0002 140.331 21.5869C140.976 22.1735 141.768 22.4669 142.707 22.4669C144.056 22.4669 145.009 21.9022 145.567 20.7729H148.273C147.906 21.8875 147.239 22.8042 146.271 23.5229C145.317 24.2269 144.129 24.5789 142.707 24.5789C141.548 24.5789 140.507 24.3222 139.583 23.8089C138.673 23.2809 137.955 22.5475 137.427 21.6089C136.913 20.6555 136.657 19.5555 136.657 18.3089C136.657 17.0622 136.906 15.9695 137.405 15.0309C137.918 14.0775 138.629 13.3442 139.539 12.8309C140.463 12.3175 141.519 12.0609 142.707 12.0609C143.851 12.0609 144.87 12.3102 145.765 12.8089C146.659 13.3075 147.356 14.0115 147.855 14.9209C148.353 15.8155 148.603 16.8495 148.603 18.0229ZM145.985 17.2309C145.97 16.3069 145.64 15.5662 144.995 15.0089C144.349 14.4515 143.55 14.1729 142.597 14.1729C141.731 14.1729 140.991 14.4515 140.375 15.0089C139.759 15.5515 139.392 16.2922 139.275 17.2309H145.985ZM155.471 24.5789C154.518 24.5789 153.66 24.4102 152.897 24.0729C152.149 23.7209 151.555 23.2515 151.115 22.6649C150.675 22.0635 150.44 21.3962 150.411 20.6629H153.007C153.051 21.1762 153.293 21.6089 153.733 21.9609C154.188 22.2982 154.752 22.4669 155.427 22.4669C156.131 22.4669 156.674 22.3349 157.055 22.0709C157.451 21.7922 157.649 21.4402 157.649 21.0149C157.649 20.5602 157.429 20.2229 156.989 20.0029C156.564 19.7829 155.882 19.5409 154.943 19.2769C154.034 19.0275 153.293 18.7855 152.721 18.5509C152.149 18.3162 151.65 17.9569 151.225 17.4729C150.814 16.9889 150.609 16.3509 150.609 15.5589C150.609 14.9135 150.8 14.3269 151.181 13.7989C151.562 13.2562 152.105 12.8309 152.809 12.5229C153.528 12.2149 154.349 12.0609 155.273 12.0609C156.652 12.0609 157.759 12.4129 158.595 13.1169C159.446 13.8062 159.9 14.7522 159.959 15.9549H157.451C157.407 15.4122 157.187 14.9795 156.791 14.6569C156.395 14.3342 155.86 14.1729 155.185 14.1729C154.525 14.1729 154.019 14.2975 153.667 14.5469C153.315 14.7962 153.139 15.1262 153.139 15.5369C153.139 15.8595 153.256 16.1309 153.491 16.3509C153.726 16.5709 154.012 16.7469 154.349 16.8789C154.686 16.9962 155.185 17.1502 155.845 17.3409C156.725 17.5755 157.444 17.8175 158.001 18.0669C158.573 18.3015 159.064 18.6535 159.475 19.1229C159.886 19.5922 160.098 20.2155 160.113 20.9929C160.113 21.6822 159.922 22.2982 159.541 22.8409C159.16 23.3835 158.617 23.8089 157.913 24.1169C157.224 24.4249 156.41 24.5789 155.471 24.5789Z" fill="white"/>
    <path fill-rule="evenodd" clip-rule="evenodd" d="M16.925 6.88086H7.55354C4.28688 6.88086 2.23926 9.19294 2.23926 12.466V21.2957C2.23926 24.5688 4.27735 26.8809 7.55354 26.8809H16.925C20.2012 26.8809 22.2393 24.5688 22.2393 21.2957V12.466C22.2393 9.19294 20.2012 6.88086 16.925 6.88086Z" stroke="white" strokeWidth="2.5" strokeLinecap="round" strokeLinejoin="round"/>
    <path d="M7.37109 19.4816L10.4922 15.4251L14.0524 18.2217L17.1067 14.2798" stroke="white" strokeWidth="2" strokeLinecap="round" strokeLinejoin="round"/>
</svg>
