<svg width="22" height="23" viewBox="0 0 22 23" fill="none"
    xmlns="http://www.w3.org/2000/svg">
    <path d="M8.24643 20.0181V17.0475C8.24642 16.2919 8.86241 15.6779 9.62561 15.6729H12.4212C13.1881 15.6729 13.8097 16.2883 13.8097 17.0475V17.0475V20.0273C13.8096 20.6688 14.3268 21.1931 14.9746 21.2082H16.8383C18.6963 21.2082 20.2024 19.7171 20.2024 17.8778V17.8778V9.42716C20.1925 8.70357 19.8493 8.02407 19.2705 7.58206L12.8965 2.49879C11.7798 1.61369 10.1925 1.61369 9.0758 2.49879L2.72973 7.59128C2.14876 8.03151 1.80501 8.71213 1.79785 9.43639V17.8778C1.79785 19.7171 3.304 21.2082 5.16192 21.2082H7.02568C7.68959 21.2082 8.2278 20.6754 8.2278 20.0181V20.0181" stroke="white" strokeWidth="2.5" strokeLinecap="round" strokeLinejoin="round"/>
</svg>
