<svg width="25" height="25" viewBox="0 0 25 25" fill="none"
    xmlns="http://www.w3.org/2000/svg">
    <g id="Iconly/Light/Work">
        <g id="Work">
            <path id="Stroke 1" d="M12.2344 17.5267V14.9897" stroke="white" strokeWidth="1.5" strokeLinecap="round" strokeLinejoin="round"/>
            <g id="Group 8">
                <path id="Stroke 2" fill-rule="evenodd" clip-rule="evenodd" d="M18.4293 6.18018C20.1193 6.18018 21.4793 7.55018 21.4793 9.24018V12.6802C19.0193 14.1202 15.7693 14.9902 12.2293 14.9902C8.68926 14.9902 5.44926 14.1202 2.98926 12.6802V9.23018C2.98926 7.54018 4.35926 6.18018 6.04926 6.18018H18.4293Z" stroke="white" strokeWidth="2.5" strokeLinecap="round" strokeLinejoin="round"/>
                <path id="Stroke 4" d="M15.7344 6.17561V5.80961C15.7344 4.58961 14.7444 3.59961 13.5244 3.59961H10.9444C9.72438 3.59961 8.73438 4.58961 8.73438 5.80961V6.17561" stroke="white" strokeWidth="2.5" strokeLinecap="round" strokeLinejoin="round"/>
                <path id="Stroke 6" d="M3.01367 16.333L3.20267 18.842C3.33067 20.533 4.73967 21.84 6.43467 21.84H18.0337C19.7287 21.84 21.1377 20.533 21.2657 18.842L21.4547 16.333" stroke="white" strokeWidth="2.5" strokeLinecap="round" strokeLinejoin="round"/>
            </g>
        </g>
    </g>
</svg>
